<?xml version="1.0" encoding="utf-8"?>
<!-- Generator: Adobe Illustrator 26.0.3, SVG Export Plug-In . SVG Version: 6.00 Build 0)  -->
<svg version="1.1" id="Layer_1" xmlns="http://www.w3.org/2000/svg" xmlns:xlink="http://www.w3.org/1999/xlink" x="0px" y="0px"
	 viewBox="0 0 700 700" style="enable-background:new 0 0 700 700;" xml:space="preserve">
<path d="M348.8,448c-92.6,0-168-75.4-168-168s75.4-168,168-168s168,75.4,168,168S441.4,448,348.8,448z M348.8,128.8
	c-83.4,0-151.2,67.8-151.2,151.2s67.8,151.2,151.2,151.2S500,363.4,500,280S432.1,128.8,348.8,128.8L348.8,128.8z"/>
<path d="M298.3,312.8c-2.2,0-4.4-0.9-6-2.6c-3.2-3.3-3.1-8.7,0.2-11.9l56.4-54.5l54.4,54.6c3.3,3.3,3.3,8.6,0,11.9
	c-3.3,3.3-8.6,3.3-11.9,0l-42.7-42.9l-44.4,43C302.5,312,300.4,312.8,298.3,312.8L298.3,312.8z"/>
</svg>
