<?xml version="1.0" encoding="utf-8"?>
<!-- Generator: Adobe Illustrator 25.4.1, SVG Export Plug-In . SVG Version: 6.00 Build 0)  -->
<svg version="1.1" id="Layer_1" xmlns="http://www.w3.org/2000/svg" xmlns:xlink="http://www.w3.org/1999/xlink" x="0px" y="0px"
	 viewBox="0 0 700 700" style="enable-background:new 0 0 700 700;" xml:space="preserve">
<path d="M610.3,236.8l-250.1-193c-6-4.7-14.5-4.7-20.5,0l-250.1,193c-5.7,4.4-8,11.9-5.6,18.8c2.3,6.8,8.7,11.4,15.9,11.4h64V503
	c0,9.3,7.5,16.8,16.8,16.8h338.5c9.3,0,16.8-7.5,16.8-16.8l0-236.1h64c7.2,0,13.6-4.6,15.9-11.4
	C618.3,248.7,616.1,241.2,610.3,236.8L610.3,236.8z M519.2,233.2c-9.3,0-16.8,7.5-16.8,16.8v236.1h-99.2v-156
	c0-14-11.4-25.4-25.4-25.4h-55.6c-14,0-25.4,11.4-25.4,25.4v156h-99.2V250.1c0-9.3-7.5-16.8-16.8-16.8h-31.5L350,78.3l200.7,154.9
	L519.2,233.2z"/>
</svg>
